<?xml version="1.0" encoding="utf-8"?>
<!-- Generator: Adobe Illustrator 19.2.1, SVG Export Plug-In . SVG Version: 6.00 Build 0)  -->
<!DOCTYPE svg PUBLIC "-//W3C//DTD SVG 1.1//EN" "http://www.w3.org/Graphics/SVG/1.1/DTD/svg11.dtd">
<svg version="1.1" xmlns="http://www.w3.org/2000/svg" xmlns:xlink="http://www.w3.org/1999/xlink" x="0px" y="0px"
	 viewBox="0 0 1024 768" style="enable-background:new 0 0 1024 768;" xml:space="preserve">
<style type="text/css">
	.st0{display:none;}
	.st1{display:inline;fill:none;stroke:#0025EC;stroke-miterlimit:10;}
	.st2{fill:#E9F898;}
	.st3{fill:#DD6503;}
	.st4{fill:none;stroke:#DD6503;stroke-width:5.464;stroke-miterlimit:10;}
	.st5{fill:#DD6503;stroke:#DD6503;stroke-width:5.464;stroke-miterlimit:10;}
	.st6{fill:none;stroke:#DD6503;stroke-width:3.0863;stroke-miterlimit:10;}
	.st7{fill:#DD6503;stroke:#DD6503;stroke-width:3.0863;stroke-miterlimit:10;}
</style>
<g id="Layer_1" class="st0">
</g>
<g id="Layer_2" class="st0">
</g>
<g id="Layer_3" class="st0">
</g>
<g id="Layer_4" class="st0">
</g>
<g id="Layer_7">
	<rect class="st2" width="1024" height="768"/>
</g>
<g id="Layer_6">
	<g>
		<g>
			<g>
				<g id="XMLID_24_">
					<g>
						<path class="st3" d="M358.1,443.3c10.5,3.4,17.4,10.8,15.6,16.5c-1.9,5.7-11.9,7.5-22.3,4.1c-10.5-3.4-17.4-10.8-15.6-16.5
							C337.7,441.7,347.7,439.8,358.1,443.3z"/>
						<path class="st3" d="M342.3,398.4c10.5,3.4,17.4,10.8,15.6,16.5c-1.9,5.6-11.9,7.5-22.3,4c-10.5-3.4-17.4-10.8-15.6-16.5
							S331.9,395,342.3,398.4z"/>
						<path class="st3" d="M307,455c10.5,3.4,17.4,10.8,15.6,16.5s-11.9,7.5-22.3,4.1c-10.5-3.4-17.4-10.8-15.6-16.5
							C286.6,453.4,296.6,451.5,307,455z"/>
						<path class="st3" d="M289.8,410.4c10.5,3.5,17.4,10.8,15.6,16.5c-1.9,5.7-11.9,7.5-22.3,4c-10.5-3.4-17.4-10.8-15.6-16.5
							C269.4,408.8,279.3,407,289.8,410.4z"/>
						<path class="st3" d="M276.8,371.3c10.5,3.5,17.4,10.8,15.6,16.5c-1.9,5.7-11.9,7.5-22.3,4c-10.5-3.4-17.4-10.8-15.6-16.5
							C256.3,369.7,266.3,367.9,276.8,371.3z"/>
						<path class="st3" d="M234.7,428.2c10.5,3.4,17.4,10.8,15.6,16.5c-1.9,5.7-11.9,7.5-22.3,4.1c-10.5-3.5-17.4-10.8-15.6-16.5
							C214.3,426.5,224.3,424.8,234.7,428.2z"/>
						<path class="st3" d="M219.5,379.9c10.5,3.5,17.4,10.8,15.6,16.5c-1.9,5.7-11.9,7.5-22.3,4c-10.5-3.4-17.4-10.8-15.6-16.5
							C199,378.3,209,376.5,219.5,379.9z"/>
						<path class="st3" d="M198.6,511.8c4,0,7.3,3.3,7.3,7.3c0,4.1-3.3,7.3-7.3,7.3c-4.1,0-7.3-3.3-7.3-7.3
							C191.3,515.1,194.6,511.8,198.6,511.8z"/>
						<path class="st3" d="M198.6,537.7c0,0,8.8,23.1-26,22.5c0,0-18.4,25.7-40.6,4.5c0.7,0.3,12.5,6.2,15.2-7.9
							c2.8-14.5,18.4-11.9,18.4-11.9s2-9.6,14.9-6.6C193.4,541.3,195.4,546.2,198.6,537.7z"/>
						<path class="st3" d="M181.2,467.1c9.9,8.1,20.3,14.9,30.6,20.6c-47.5,34.8-71,0.1-71,0.1c-2.1-0.2-3.5,0.1-4.5,0.5l-3-7.4v0
							C146.5,475.3,162.4,470.3,181.2,467.1z"/>
						<path class="st3" d="M133.2,480.8l3,7.4c-1.6,0.8-2,2-2,2s-0.8,41.4-50.2,45.1c-3.1-7.3-5-15.3-2.3-21.7
							C81.7,513.7,98.2,495.4,133.2,480.8z"/>
						<path class="st3" d="M121,539.5c4.1,0,7.3,3.3,7.3,7.3c0,4-3.3,7.3-7.3,7.3c-4,0-7.3-3.3-7.3-7.3
							C113.7,542.7,116.9,539.5,121,539.5z"/>
						<path class="st3" d="M129.9,583.6c-1.6-0.6-14.8-5.2-18.8-7.8l-14.6,7.7l10.3,7.9l-5.8,2.5l-3.1,5.2l-6.3-0.2l-6,5.9
							l-1.1-13.1l-9.2,4.7l-6.5-10.6l8.8-2.3l-8.1-5.4l20.2-14.4l1.8,8.8l4.5-17.5C95.8,554.9,106.1,575.1,129.9,583.6z"/>
					</g>
					<g>
						<path class="st6" d="M129.9,583.6c-1.6-0.6-14.8-5.2-18.8-7.8l-14.6,7.7l10.3,7.9l-5.8,2.5l-3.1,5.2l-6.3-0.2l-6,5.9
							l-1.1-13.1l-9.2,4.7l-6.5-10.6l8.8-2.3l-8.1-5.4l20.2-14.4l1.8,8.8l4.5-17.5c0,0-7.3-9-11.8-19.5c-3.1-7.3-5-15.3-2.3-21.7
							L55.4,477l0,0"/>
						<path class="st6" d="M241.8,612c0.9,2.5,1.8,5.2,2.6,8.3c0.7,2.4,1.3,5,1.9,7.7c0.7,3.2,1.3,6.6,1.8,10.2
							c1.1,7.9,1.8,16.9,1.8,27.3c0,0,7.5,7.8-2.2,12.7l-0.2,26.5c0,0,12.9,1.7,6,11.2c-6.8,9.5-26,1-36.7,0
							c-10.7-1-13.4,19.7-18.9-33.3l-11.9-0.3l-9.5-0.2c0,0-6.3,39.8-16,39.8c-9.7,0-69,2.2-36.9-15.6l3.7-31.3c0,0-8-4.1-1.5-12.9
							l0.1-0.9l2.9-35.1c0,0-0.9,0.4-2.5,1.2c-5.5,2.8-19.1,10.2-27.7,19.9c0,0,1.2,8-5.6,9.6l3.6,8.3c0,0,7-2.5,11,2.7
							c3.9,5,3.6,9.4-1.3,16.9c-0.1,0.2-0.3,0.5-0.5,0.7c-5.4,7.8-16.4,25.6-27.9,14.8c-11.5-10.8,2.7-22.3,2.7-22.3l-9.9-15.3
							c0,0-18.9-3.1-6.8-20.5c9.9-14.1,21.7-29,37.6-40.4c3.6-2.6,7.5-5.1,11.7-7.3c0,0,8-11,16.9-11"/>
						<path class="st6" d="M55.4,477c1.1,0.4,23.5,7.6,28.9-15.6c0,0,27.7,10.4,30.7-17.3c0,0,27.7,15.6,35.9-9.5
							c0,0-0.5-1.2-1.2-3.4c-1.2-3.7-3-10.2-4-18c-1.8-12.9-1.5-29.3,6.9-42.6c16.4-25.9,86.8-44.5,159-14.3
							c72.1,30.2,114,75.6,100.6,122.3c-13.4,46.7-89.8,41-130.9,35c0,0-14.7,38-25.9,48c0,0,0.2,0.8,0.5,2.2
							c0.8,5.3,0.6,18.9-20.8,19.7l-6,7c0,0,6.9,5.5,12.7,21.5"/>
						<path class="st6" d="M62,466.9c0,4.7-3.8,8.5-8.5,8.5c-4.7,0-8.5-3.8-8.5-8.5s3.8-8.5,8.5-8.5C58.2,458.5,62,462.3,62,466.9z"
							/>
						<path class="st6" d="M91.1,450.5c0,4.9-4,8.9-8.9,8.9s-8.9-4-8.9-8.9s4-8.9,8.9-8.9S91.1,445.6,91.1,450.5z"/>
						<path class="st6" d="M120.7,432.7c0,4.9-4,8.9-8.9,8.9c-4.9,0-8.9-4-8.9-8.9c0-4.9,4-8.9,8.9-8.9
							C116.7,423.8,120.7,427.8,120.7,432.7z"/>
						<path class="st6" d="M81.7,513.7c0,0,16.4-18.3,51.4-32.8v0c13.3-5.5,29.2-10.5,48-13.7c0.3-0.1,0.7-0.1,1.1-0.2"/>
						<path class="st6" d="M281.4,513.7c0,0-18-3.2-41.8-12.8c-6.4-2.6-13.3-5.6-20.3-9.2c-2.5-1.3-5-2.6-7.5-4
							c-10.2-5.7-20.6-12.5-30.6-20.6c-11.1-9.1-21.5-19.8-30.3-32.5"/>
						<path class="st6" d="M387.4,470.8c-14.4,31.6-97.5,27.3-150.3,3.3c-52.8-23.9-74.5-66-60.2-97.6s88.1-30.3,140.9-6.4
							C370.6,394.1,401.8,439.2,387.4,470.8z"/>
						<path class="st6" d="M235.1,396.5c-1.9,5.7-11.9,7.5-22.3,4c-10.5-3.4-17.4-10.8-15.6-16.5c1.9-5.7,11.9-7.5,22.3-4.1
							C229.9,383.4,236.9,390.8,235.1,396.5z"/>
						<path class="st6" d="M305.4,426.9c-1.9,5.7-11.9,7.5-22.3,4c-10.5-3.4-17.4-10.8-15.6-16.5c1.9-5.7,11.9-7.5,22.3-4.1
							C300.3,413.9,307.3,421.2,305.4,426.9z"/>
						<path class="st6" d="M250.3,444.7c-1.9,5.7-11.9,7.5-22.3,4.1c-10.5-3.5-17.4-10.8-15.6-16.5c1.9-5.7,11.9-7.5,22.3-4
							C245.2,431.6,252.2,439,250.3,444.7z"/>
						<path class="st6" d="M292.4,387.8c-1.9,5.7-11.9,7.5-22.3,4c-10.5-3.4-17.4-10.8-15.6-16.5c1.9-5.7,11.9-7.5,22.3-4.1
							C287.2,374.8,294.2,382.2,292.4,387.8z"/>
						<path class="st6" d="M322.6,471.4c-1.9,5.7-11.9,7.5-22.3,4.1c-10.5-3.4-17.4-10.8-15.6-16.5c1.9-5.7,11.9-7.5,22.3-4.1
							C317.5,458.4,324.5,465.8,322.6,471.4z"/>
						<path class="st6" d="M373.7,459.8c-1.9,5.7-11.9,7.5-22.3,4.1c-10.5-3.4-17.4-10.8-15.6-16.5c1.9-5.7,11.9-7.5,22.3-4.1
							C368.6,446.7,375.6,454.1,373.7,459.8z"/>
						<path class="st6" d="M357.9,414.9c-1.9,5.6-11.9,7.5-22.3,4c-10.5-3.4-17.4-10.8-15.6-16.5s11.9-7.5,22.3-4.1
							C352.8,401.8,359.8,409.2,357.9,414.9z"/>
						<path class="st6" d="M168.8,585.4c-3.3,0.7-6.5,1.2-9.5,1.5c-6,0.6-11.5,0.5-16.6-0.2c-4.6-0.6-8.8-1.7-12.6-3
							c-0.1,0-0.1,0-0.2-0.1c-23.8-8.5-34.1-28.7-34.1-28.7"/>
						<path class="st6" d="M219.2,491.7c0,0,8.5,28-0.4,53.8c-1.4,3.9-3.1,7.7-5.3,11.4c-4.4,7.3-10.7,14-19.6,19.2
							c-3.2,1.9-6.7,3.6-10.6,5.1c-1,0.4-2,0.8-3,1.1c-4,1.3-7.7,2.4-11.4,3.1"/>
						<path class="st6" d="M128.3,546.8c0,4-3.3,7.3-7.3,7.3c-4,0-7.3-3.3-7.3-7.3c0-4.1,3.3-7.3,7.3-7.3
							C125.1,539.5,128.3,542.7,128.3,546.8z"/>
						<path class="st6" d="M206,519.1c0,4.1-3.3,7.3-7.3,7.3c-4.1,0-7.3-3.3-7.3-7.3c0-4,3.3-7.3,7.3-7.3
							C202.7,511.8,206,515.1,206,519.1z"/>
						<path class="st6" d="M84,535.3c49.4-3.6,50.2-45.1,50.2-45.1s0.4-1.2,2-2c1-0.4,2.4-0.7,4.5-0.5c0,0,23.6,34.7,71-0.1"/>
						<path class="st6" d="M149.7,431.2L149.7,431.2c-5,1-9.8-2.3-10.8-7.3c-0.9-4.8,2.1-9.4,6.8-10.6c0.2,0,0.4-0.1,0.6-0.1"/>
						<path class="st6" d="M113.1,594.7c0,0-3.1,25.8,13,32.8"/>
						<path class="st6" d="M213.5,556.8C213.5,556.8,213.5,556.8,213.5,556.8c-0.2,1.7-2.6,21.7,21.6,26.7"/>
						<path class="st6" d="M239.5,500.9c0,0,5,18.7-13.9,45c0,0-6.9,23.5,30.3,18"/>
						<path class="st6" d="M218.7,545.5C218.7,545.5,218.7,545.5,218.7,545.5c0.5-0.3,5.7-3.7,6.8,0.3"/>
						<path class="st6" d="M241.8,612C241.8,612,241.8,612,241.8,612c-2.1-0.2-74.8-4.8-113.2,14.2c0,0-2.7-23.6,14-38.9"/>
						<path class="st6" d="M126.1,661.3c0,0,17.8,17.7,123.7,4.2"/>
						<path class="st6" d="M159.3,587.3c0,0-3.1,5.6-10,10.8c-6.9,5.1,4.2,7.3,19.5-1.4c0,0-1.4-1.6-1.5-4.7c-0.1-0.8,0-1.8,0.2-2.8
							c0.2-1.1,0.6-2.4,1.2-3.8h0v0"/>
						<path class="st6" d="M183.2,581.2c0,0,4,7.4,1,12.8c-0.7,1.2-1.8,2.4-3.3,3.3c-7,4.1-12.7-0.7-13.5-5.3
							c-0.2-1-0.1-1.9,0.2-2.8"/>
						<path class="st6" d="M193.9,576.1c0,0,4.2,10,12.9,10.3c8.7,0.4-8.7,7.8-22.5,7.6"/>
						<path class="st6" d="M244.4,620.3c0,0,12.1-14.5,17-8.4c3.1,3.9,2.7,8.9-2.2,12.3c-2.8,2-7.1,3.4-13,3.8"/>
						<path class="st6" d="M249,638.1c0,0,13,6.5,16.2,1.2s-0.2-11.9-5.9-15.1"/>
						<path class="st6" d="M127.1,675.1c0,0,23.7,5.4,58.8,6.5c18.1,0.5,39.2-0.2,61.7-3.3"/>
						<path class="st6" d="M70.6,662.8c0,0,4.9-13.7,11.1-10.5c0.4,0.2,0.7,0.4,1.1,0.7c6.8,5.6,10,3.9,10,3.9"/>
						<path class="st6" d="M81.7,652.3l8.1,20.3c0,0,16.2-5,16.3,12.1"/>
						<line class="st6" x1="80.5" y1="678" x2="89.8" y2="672.6"/>
					</g>
				</g>
			</g>
			<path class="st7" d="M235.1,527.8l-8.8,16.1h-7l3.2-16.1c0,0,8.9,1.3,13.8-1.3"/>
		</g>
		
			<ellipse transform="matrix(0.5658 -0.8245 0.8245 0.5658 -530.0457 370.6827)" class="st6" cx="86.9" cy="688.6" rx="6" ry="2.9"/>
	</g>
</g>
</svg>
